<svg height="800" viewBox="0 0 512 512" width="800" xmlns="http://www.w3.org/2000/svg"><g fill="#fff"><path d="m106.672 42.432c0-9.958-8.074-18.032-18.022-18.032h-6.63c-9.948 0-18.022 8.074-18.022 18.032v49.878h42.674zm85.331 0c0-9.958-8.074-18.032-18.023-18.032h-6.62c-9.94 0-18.013 8.074-18.013 18.032v49.878h42.657v-49.878zm85.329 0c0-9.958-8.074-18.032-18.022-18.032h-6.62c-9.94 0-18.013 8.074-18.013 18.032v49.878h42.656v-49.878zm85.34 0c0-9.958-8.074-18.032-18.014-18.032h-6.638c-9.94 0-18.014 8.074-18.014 18.032v49.878h42.666zm-298.674 427.137c0 9.958 8.074 18.031 18.022 18.031h6.63c9.949 0 18.022-8.074 18.022-18.031v-49.86h-42.674zm85.348 0c0 9.958 8.074 18.031 18.013 18.031h6.62c9.949 0 18.023-8.074 18.023-18.031v-49.86h-42.657v49.86zm85.331 0c0 9.958 8.074 18.031 18.013 18.031h6.62c9.948 0 18.022-8.074 18.022-18.031v-49.86h-42.656v49.86zm85.329 0c0 9.958 8.074 18.031 18.014 18.031h6.638c9.94 0 18.014-8.074 18.014-18.031v-49.86h-42.666zm127.996-427.137c0-9.958-8.056-18.032-18.032-18.032h-6.62c-9.94 0-18.013 8.074-18.013 18.032v49.878h42.665zm-42.665 427.137c0 9.958 8.074 18.031 18.013 18.031h6.62c9.976 0 18.032-8.074 18.032-18.031v-49.86h-42.665zm-237.161-245.595h-19.206c-.529 0-.789.26-.789.79v23.978c0 .529.26.79.789.79h19.206c8.209 0 13.77-5.033 13.77-12.712 0-7.813-5.562-12.846-13.77-12.846z"/><path d="m250.536 232.317-12.056 34.969h24.365l-11.913-34.969z"/><path d="m0 118.971v274.076h512v-274.076zm198.38 181.031h-14.712c-1.058 0-1.578-.395-1.982-1.328l-17.215-35.103h-15.502c-.529 0-.789.269-.789.798v34.304c0 .798-.538 1.328-1.328 1.328h-12.989c-.79 0-1.319-.529-1.319-1.328v-87.42c0-.799.529-1.328 1.319-1.328h34.842c16.561 0 28.742 10.998 28.742 26.895 0 11.788-6.754 20.929-17.08 24.768l18.937 36.69c.53.926.001 1.724-.924 1.724zm89.906 0h-12.99c-.915 0-1.453-.395-1.713-1.328l-5.966-17.485h-33.91l-5.956 17.485c-.269.932-.79 1.328-1.722 1.328h-12.847c-.932 0-1.201-.529-.932-1.328l30.859-87.42c.269-.799.807-1.328 1.722-1.328h12.192c.924 0 1.462.529 1.722 1.328l30.465 87.42c.26.799 0 1.328-.924 1.328zm93.485-1.327c0 .798-.53 1.328-1.328 1.328h-11.527c-.79 0-1.319-.529-1.319-1.328v-55.099h-.529l-19.072 42.388c-.538 1.193-1.327 1.722-2.52 1.722h-7.688c-1.184 0-1.982-.529-2.512-1.722l-19.071-42.388h-.529v55.099c0 .798-.53 1.328-1.328 1.328h-11.528c-.789 0-1.318-.529-1.318-1.328v-87.42c0-.799.529-1.328 1.318-1.328h11.788c1.202 0 1.867.404 2.261 1.328l24.768 55.502h.529l24.374-55.502c.394-.924 1.058-1.328 2.252-1.328h11.652c.798 0 1.328.529 1.328 1.328v87.42z"/></g></svg>