<?xml version="1.0" encoding="UTF-8" standalone="no"?>
<svg
   width="20"
   height="20"
   viewBox="0 0 160 160"
   version="1.1"
   id="svg1"
   sodipodi:docname="atec_wpci_icon_admin.svg"
   inkscape:version="1.4 (e7c3feb1, 2024-10-09)"
   xmlns:inkscape="http://www.inkscape.org/namespaces/inkscape"
   xmlns:sodipodi="http://sodipodi.sourceforge.net/DTD/sodipodi-0.dtd"
   xmlns="http://www.w3.org/2000/svg"
   xmlns:svg="http://www.w3.org/2000/svg">
  <defs
     id="defs1" />
  <sodipodi:namedview
     id="namedview1"
     pagecolor="#ffffff"
     bordercolor="#000000"
     borderopacity="0.25"
     inkscape:showpageshadow="2"
     inkscape:pageopacity="0.0"
     inkscape:pagecheckerboard="true"
     inkscape:deskcolor="#d1d1d1"
     inkscape:zoom="11.313708"
     inkscape:cx="10.783379"
     inkscape:cy="9.9878837"
     inkscape:window-width="2048"
     inkscape:window-height="1099"
     inkscape:window-x="0"
     inkscape:window-y="25"
     inkscape:window-maximized="0"
     inkscape:current-layer="svg1" />
  <path
     d="m 62.857002,0 -25.714,11.429 25.714,11.428 25.714,-11.427 z M 5.7140022,5.714 A 5.711,5.711 0 0 0 2.1894499e-6,11.43 5.711,5.711 0 0 0 5.7140022,17.144 H 22.857002 a 5.711,5.711 0 0 0 5.714,-5.714 5.711,5.711 0 0 0 -5.714,-5.715 z m 91.4289998,0 V 40 H 160 V 22.857 C 160,13.404 152.31,5.714 142.857,5.714 Z m -62.857,11.429 v 24.855 a 5.716,5.716 0 0 0 3.393,5.223 l 22.321,9.922 V 28.57 Z m 57.143,0 -25.715,11.427 v 28.572 l 22.322,-9.922 a 5.716,5.716 0 0 0 3.393,-5.223 z m 14.284998,0 A 2.855,2.855 0 0 1 108.571,20 v 5.714 a 2.855,2.855 0 0 1 -2.857,2.857 2.855,2.855 0 0 1 -2.857,-2.857 V 20 a 2.855,2.855 0 0 1 2.857,-2.857 z m 11.429,0 A 2.855,2.855 0 0 1 120,20 v 5.714 a 2.855,2.855 0 0 1 -2.857,2.857 2.855,2.855 0 0 1 -2.857,-2.857 V 20 a 2.855,2.855 0 0 1 2.857,-2.857 z m 11.428,0 A 2.855,2.855 0 0 1 131.43,20 v 5.714 a 2.855,2.855 0 0 1 -2.858,2.857 2.855,2.855 0 0 1 -2.857,-2.857 V 20 a 2.855,2.855 0 0 1 2.857,-2.857 z m 11.429,0 A 2.855,2.855 0 0 1 142.857,20 v 5.714 A 2.855,2.855 0 0 1 140,28.571 2.855,2.855 0 0 1 137.143,25.714 V 20 A 2.855,2.855 0 0 1 140,17.143 Z M 5.7140022,22.857 A 5.711,5.711 0 0 0 2.1894499e-6,28.571 5.711,5.711 0 0 0 5.7140022,34.286 H 22.857002 a 5.711,5.711 0 0 0 5.714,-5.715 5.711,5.711 0 0 0 -5.714,-5.714 z m 0,17.143 A 5.711,5.711 0 0 0 2.1894499e-6,45.714 5.711,5.711 0 0 0 5.7140022,51.429 H 22.857002 a 5.711,5.711 0 0 0 5.714,-5.715 5.711,5.711 0 0 0 -5.714,-5.714 z m 90.7479998,5.714 c -1.02,2.942 -3.175,5.425 -6.116,6.73 l -27.489,12.221 -17.143,-7.623 V 80 H 160 V 45.714 Z M 105.714,57.143 A 2.855,2.855 0 0 1 108.571,60 v 5.714 a 2.855,2.855 0 0 1 -2.857,2.857 2.855,2.855 0 0 1 -2.857,-2.857 V 60 a 2.855,2.855 0 0 1 2.857,-2.857 z m 11.429,0 A 2.855,2.855 0 0 1 120,60 v 5.714 a 2.855,2.855 0 0 1 -2.857,2.857 2.855,2.855 0 0 1 -2.857,-2.857 V 60 a 2.855,2.855 0 0 1 2.857,-2.857 z m 11.428,0 A 2.855,2.855 0 0 1 131.43,60 v 5.714 a 2.855,2.855 0 0 1 -2.858,2.857 2.855,2.855 0 0 1 -2.857,-2.857 V 60 a 2.855,2.855 0 0 1 2.857,-2.857 z m 11.429,0 A 2.855,2.855 0 0 1 142.857,60 v 5.714 A 2.855,2.855 0 0 1 140,68.571 2.855,2.855 0 0 1 137.143,65.714 V 60 A 2.855,2.855 0 0 1 140,57.143 Z M 45.714002,85.714 V 120 H 160 V 85.714 Z M 105.714,97.143 a 2.855,2.855 0 0 1 2.857,2.857 v 5.714 a 2.855,2.855 0 0 1 -2.857,2.857 2.855,2.855 0 0 1 -2.857,-2.857 V 100 a 2.855,2.855 0 0 1 2.857,-2.857 z m 11.429,0 A 2.855,2.855 0 0 1 120,100 v 5.714 a 2.855,2.855 0 0 1 -2.857,2.857 2.855,2.855 0 0 1 -2.857,-2.857 V 100 a 2.855,2.855 0 0 1 2.857,-2.857 z m 11.428,0 A 2.855,2.855 0 0 1 131.43,100 v 5.714 a 2.855,2.855 0 0 1 -2.858,2.857 2.855,2.855 0 0 1 -2.857,-2.857 V 100 a 2.855,2.855 0 0 1 2.857,-2.857 z m 11.429,0 a 2.855,2.855 0 0 1 2.857,2.857 v 5.714 a 2.855,2.855 0 0 1 -2.857,2.857 2.855,2.855 0 0 1 -2.857,-2.857 V 100 A 2.855,2.855 0 0 1 140,97.143 Z m -94.285998,28.571 v 17.143 c 0,9.453 7.69,17.143 17.143,17.143 H 142.857 C 152.31,160 160,152.31 160,142.857 V 125.714 Z M 105.714,137.143 a 2.855,2.855 0 0 1 2.857,2.857 v 5.714 a 2.855,2.855 0 0 1 -2.857,2.857 2.855,2.855 0 0 1 -2.857,-2.857 V 140 a 2.855,2.855 0 0 1 2.857,-2.857 z m 11.429,0 A 2.855,2.855 0 0 1 120,140 v 5.714 a 2.855,2.855 0 0 1 -2.857,2.857 2.855,2.855 0 0 1 -2.857,-2.857 V 140 a 2.855,2.855 0 0 1 2.857,-2.857 z m 11.428,0 A 2.855,2.855 0 0 1 131.43,140 v 5.714 a 2.855,2.855 0 0 1 -2.858,2.857 2.855,2.855 0 0 1 -2.857,-2.857 V 140 a 2.855,2.855 0 0 1 2.857,-2.857 z m 11.429,0 a 2.855,2.855 0 0 1 2.857,2.857 v 5.714 a 2.855,2.855 0 0 1 -2.857,2.857 2.855,2.855 0 0 1 -2.857,-2.857 V 140 A 2.855,2.855 0 0 1 140,137.143 Z"
     fill="#ffffff"
     font-family="none"
     font-weight="none"
     font-size="none"
     text-anchor="none"
     id="path1" />
</svg>
