<svg width="424.4" height="749.741" viewBox="0 0 16.976 29.99" xmlns="http://www.w3.org/2000/svg"><path d="M2.527 17.943A15.697 15.697 0 0 0 2.238 20l-.003.056c0 .025-.005.05-.006.075a4.495 4.495 0 0 0-1.261-1.093l-.021-.011a6.186 6.186 0 0 1 1.251 2.85l.005.037a2.846 2.846 0 0 1-1.442-.251l.018.007c.327.335.735.588 1.192.729l.02.005a3.544 3.544 0 0 0-1.685.84l.003-.003a3.547 3.547 0 0 1 2.01-.361l-.016-.001A169.221 169.221 0 0 0 0 29.99a.674.674 0 0 0 .453-.438l.001-.005c.137-.46 1.05-3.482 2.472-7.454l.156-.435c.15-.415.307-.84.467-1.275l.112-.296v-.005l-1.122-2.213c-.004.025-.012.05-.015.075zm1.72.594c.197-.507.399-1.012.604-1.531.195-.492.4-.987.605-1.487q.951-2.273 1.999-4.504l.256-.53c.15-.304.296-.606.45-.905a.156.156 0 0 1 .025-.05L7.068 7.327l-.055.087a54.58 54.58 0 0 0-.771 1.302q-.721 1.254-1.365 2.549l-.117.24a28.612 28.612 0 0 0-1.508 3.642l-.064.216a20.596 20.596 0 0 0-.624 2.346l-.026.15 1.12 2.212c.146-.396.3-.797.455-1.203zM8.908 8.14q.77-1.438 1.632-2.824l.05-.08c.28-.44.562-.866.846-1.275l-.856-1.616-.196.24c-.246.306-.504.637-.766.987Q8.275 5.37 7.099 7.282l-.028.048 1.116 2.203c.237-.472.475-.94.719-1.397zm3.854-8a11.116 11.116 0 0 0-2.164 2.175l-.02.028.857 1.617a21.373 21.373 0 0 1 1.841-2.31l-.014.016.072-.077a.84.84 0 0 0-.07.076l-.001.002c-.598.69-1.165 1.45-1.672 2.25l-.046.078a32.698 32.698 0 0 0 3.53-.442l-.199.03a3.5 3.5 0 0 0-.331-2.694l.009.017S13.729-.431 12.76.144zM3.827 20.557q-.219.605-.444 1.24l-.006.019-.062.177c-.1.284-.187.54-.387 1.125.37.24.66.578.838.977l.006.014a1.795 1.795 0 0 0-.581-1.236l-.001-.001a3.876 3.876 0 0 0 3.729-1.51l.007-.01c.054-.09.113-.2.165-.312l.009-.023a1.554 1.554 0 0 1-1.509.548l.01.002H5.6a4.38 4.38 0 0 0 2.181-1.773l.011-.018c.117-.191.232-.4.35-.63a3.52 3.52 0 0 1-3.352 1.078l.023.004-.9.097q-.044.114-.084.229zM8.356 9.723l-.096.2c-.097.2-.196.4-.295.61l-.325.69-.165.359q-.941 2.04-1.783 4.124-.306.744-.616 1.537c-.187.475-.371.956-.562 1.455l-.025.075c-.187.495-.375 1.002-.566 1.525l-.012.034.9-.1a.305.305 0 0 1-.054-.008h.002a6.415 6.415 0 0 0 3.433-1.93l.004-.003a8.645 8.645 0 0 0 1.152-1.59l.022-.042c.246-.428.499-.945.72-1.478l.035-.094c.21-.506.41-1.053.6-1.647a3.17 3.17 0 0 1-.82.29l-.021.004a2.364 2.364 0 0 1-.329.056h-.012a3.945 3.945 0 0 0 2.093-2.024l.01-.025c-.345.242-.75.426-1.186.53l-.024.005a3.65 3.65 0 0 1-.217.037l-.054.008h.003c.343-.141.638-.31.908-.511l-.011.008c.317-.24.581-.53.788-.86l.008-.012.079-.13.096-.192c.146-.282.301-.632.436-.992l.023-.07.038-.11c.059-.161.112-.355.15-.555l.004-.024a.945.945 0 0 1-.113.079l-.004.002c-.36.193-.777.34-1.218.42l-.026.005-.001-.001h-.021l-.125.02.021-.01-2.83.313-.016.027zm3.191-5.728c-.255.387-.53.825-.825 1.325l-.05.077Q9.84 6.804 9.091 8.259q-.351.675-.721 1.432l2.833-.312a3.454 3.454 0 0 0 1.545-1.21l.007-.01q.147-.212.287-.427c.287-.454.575-.953.829-1.45.246-.482.462-.958.631-1.387.104-.275.187-.527.247-.75.052-.197.092-.384.125-.562-.924.174-2.066.32-3.226.406l-.108.006zm5.32-1.25l-.219.442-.215-.441h-.109v.632h.084v-.504l.215.437h.056l.215-.437v.505h.082v-.632zm-1.125 0v.083h.195v.55h.09v-.55h.195v-.082z"/></svg>