<svg width="601.921" height="755.998" xmlns="http://www.w3.org/2000/svg"><path fill="#818181" d="M595.453 367.328l-170.867-170.89a3.805 3.805 0 0 0-2.68-1.109c-.07 0-.145.004-.223.008a3.793 3.793 0 0 0-2.746 1.434l-72.828 92.41a3.785 3.785 0 0 0 .297 5.016l78.461 78.461a14.793 14.793 0 0 1 4.355 10.578c-.012 3.961-1.551 7.664-4.34 10.422l-22.676 22.672a3.787 3.787 0 0 0-.473 4.777c5.652 8.457 14.906 22.383 15.77 23.926 2.84 5.684 3.789 20.195-4.59 26.57l-178.507 137.1a3.797 3.797 0 0 0-1.477 3c0 15.211-.004 35.758-.008 56.445-.004 20.875-.012 41.891-.012 57.695a22281.41 22281.41 0 0 0 .012 24.48c.004 2.637.008 4.234 2.098 5.273a3.778 3.778 0 0 0 1.691.402c1.563 0 2.188-.617 3.695-2.121l2.984-2.98c2.613-2.605 6.441-6.434 11.313-11.297 9.742-9.73 23.648-23.633 40.344-40.313 33.383-33.363 77.887-77.852 122.391-122.336 89-88.961 177.996-177.938 177.996-177.938 8.649-8.755 8.645-22.966.02-31.685z"/><path fill="#3c3c3a" d="M368.391 1.695l-.055-.078c-.039-.047-.07-.094-.109-.137l-.098-.117A3.81 3.81 0 0 0 365.395 0h-.176c-.996 0-1.961.398-2.676 1.109L6.574 357.121c-4.238 4.191-6.578 9.824-6.574 15.84.004 6.008 2.344 11.617 6.59 15.801l170.82 170.84a3.772 3.772 0 0 0 2.672 1.109c.074 0 .145 0 .223-.008a3.796 3.796 0 0 0 2.746-1.434l72.871-92.41a3.78 3.78 0 0 0-.297-5.012l-78.539-78.465c-2.781-2.758-4.309-6.457-4.316-10.422-.004-3.988 1.527-7.715 4.313-10.492l22.723-22.758a3.79 3.79 0 0 0 .43-4.836l-15.512-22.289c-6.266-8.883-4.32-21.492 4.324-28.121l178.573-137.011a3.794 3.794 0 0 0 1.48-3l.055-140.477c0-.824-.265-1.624-.765-2.281z"/><path fill="#bfbfbf" d="M399.836 442.734L202.102 314.316l87.336 125.559c1.883 2.871 1.688 7.781-.383 10.555L132.621 648.969c-2.77 3.594-5.078 7.488-3.125 11.512 1.059 2.109 3.617 3.789 6.086 3.996 3.09-.031 5.453-1.383 8.707-3.859l251.414-193c7.688-5.876 7.481-20.106 4.133-24.884z"/><path fill="#d3d3d3" d="M472.426 95.578c-1.184-2.418-3.816-4.055-6.543-4.055-2.43 0-4.734 1.051-8.242 3.734l-251.52 193.149c-7.973 6.098-9.773 17.719-4.02 25.91l197.734 128.418c-2.863-4.195-86.512-125.453-87.355-126.68-1.895-2.68-1.738-7.898.324-10.52l156.438-198.621.109-.125c2.54-3.257 5.087-7.077 3.075-11.21z"/></svg>