<svg height="800" viewBox="0 0 40 64" width="500" xmlns="http://www.w3.org/2000/svg"><g fill="#231f20"><circle cx="28" cy="55" r="1"/><circle cx="12" cy="55" r="1"/><circle cx="20" cy="55" r="1"/><path d="m0 60c0 2.211 1.789 4 4 4h32c2.211 0 4-1.789 4-4v-22h-40zm28-8a3 3 0 1 1 0 6 3 3 0 0 1 0-6zm-8 0a3 3 0 1 1 0 6 3 3 0 0 1 0-6zm-8 0a3 3 0 1 1 0 6 3 3 0 0 1 0-6zm-12-28h40v-10h-40zm9-6h22a1 1 0 1 1 0 2h-22a1 1 0 1 1 0-2zm-9 18h40v-10h-40zm9-6h22a1 1 0 1 1 0 2h-22a1 1 0 1 1 0-2zm27-30h-32c-2.211 0-4 1.789-4 4v8h40v-8c0-2.211-1.789-4-4-4zm-5 8h-22a1 1 0 1 1 0-2h22a1 1 0 1 1 0 2z"/></g></svg>