<svg height="703.694" viewBox="0 0 511 450.364" width="798.438" xmlns="http://www.w3.org/2000/svg"><path d="M106.169 21.62S208.292-33.905 295.66 33.012l-48.896 167.995s-54.756-37.67-95.361-33.602c-40.605 4.079-94.13 23.508-94.13 23.508zM0 389.748c22.54-11.653 56.372-17.56 95.35-20.823 39.011-3.255 93.91 32.468 93.91 32.468l49.401-169.776c-7.817-5.618-44.168-30.094-89.666-33.348-45.52-3.255-100.354 22.243-100.354 22.243zm215.604 26.599c8.928 3.519 38.22 31.38 86.972 33.854 48.763 2.419 102.541-22.75 102.541-22.75s47.894-167.6 48.861-168.248c.33-.176-.604.484-.968.649-45.596 17.845-68.872 20.506-102.496 21.309-34.141.824-86.269-33.095-86.269-33.095zM321.51 50.757l-48.995 167.017s39.803 39 95.867 35.768c56.098-3.267 86.532-20.945 93.976-23.442L511 61.598s-64.606 26.982-106.851 22.09c-42.265-4.893-68.555-22.85-82.639-32.931z"/></svg>