<svg fill-rule="evenodd" image-rendering="optimizeQuality" shape-rendering="geometricPrecision" width="600" height="600" xmlns="http://www.w3.org/2000/svg"><path d="M209.024 0h202.55a16.917 16.917 0 0 1 13.535 6.768l127.21 137.625a16.856 16.856 0 0 1 4.469 11.437l.093 294.627c0 20.668-8.504 39.518-22.169 53.207l-.082.082c-13.689 13.653-32.526 22.134-53.17 22.134h-23.53c-.353 20.222-8.775 38.59-22.146 51.95-13.677 13.678-32.55 22.17-53.277 22.17H118.541c-20.727 0-39.6-8.492-53.265-22.17-13.665-13.653-22.157-32.514-22.157-53.252V159.372c0-20.738 8.48-39.623 22.145-53.276C78.918 92.43 97.803 83.95 118.541 83.95h15.06v-8.528c0-20.738 8.481-39.623 22.147-53.276C169.4 8.48 188.286 0 209.024 0zm35.811 294.37c-9.349 0-16.926-7.59-16.926-16.938 0-9.337 7.577-16.926 16.926-16.926h200.813c9.349 0 16.938 7.59 16.938 16.926 0 9.349-7.59 16.938-16.938 16.938zm0 90.155c-9.349 0-16.926-7.578-16.926-16.926 0-9.337 7.577-16.926 16.926-16.926h160.017c9.349 0 16.926 7.589 16.926 16.926 0 9.348-7.577 16.926-16.926 16.926zM421.18 52.127v57.51c1.126 14.429 6.111 25.69 14.838 33.15 9.15 7.811 22.967 12.21 41.324 12.538l39.166-.047zm101.85 136.98l-45.946-.07c-26.732-.411-47.822-7.625-63.012-20.61-15.812-13.536-24.75-32.679-26.58-56.338l-.164-2.346V33.852H209.024c-11.413 0-21.829 4.692-29.36 12.21-7.518 7.531-12.21 17.947-12.21 29.36v375.035c0 11.425 4.704 21.83 12.222 29.348 7.53 7.53 17.935 12.223 29.348 12.223H481.46c11.437 0 21.841-4.669 29.336-12.176 7.566-7.554 12.234-17.946 12.234-29.395zM424.053 525.88h-215.03c-20.738 0-39.611-8.493-53.265-22.146-13.665-13.665-22.157-32.527-22.157-53.277V117.802H118.54c-11.425 0-21.83 4.692-29.36 12.21-7.518 7.531-12.21 17.935-12.21 29.36v365.206c0 11.413 4.703 21.805 12.222 29.336 7.542 7.542 17.947 12.234 29.348 12.234h263.966c11.401 0 21.806-4.692 29.348-12.234 7.237-7.237 11.87-17.137 12.199-28.034z" fill-rule="nonzero"/></svg>