<svg width="600" height="600" viewBox="0 0 18 18" xmlns="http://www.w3.org/2000/svg"><path d="M2.455 18a.819.819 0 0 1-.819-.818v-2.455a.819.819 0 0 1 1.637 0v2.455a.819.819 0 0 1-.818.818zm7.363-.818v-5.727a.819.819 0 0 0-1.636 0v5.727a.819.819 0 0 0 1.636 0zm5.727-9a.819.819 0 0 0-.817.818v8.182a.819.819 0 0 0 1.636 0V9a.819.819 0 0 0-.819-.818zm.313-8.119A.811.811 0 0 0 15.545 0h-3.272a.819.819 0 0 0 0 1.636h1.297L9 6.207 6.305 3.513a.819.819 0 0 0-1.157 0L1.876 6.785A.819.819 0 0 0 3.033 7.94l2.695-2.694L8.422 7.94a.819.819 0 0 0 1.156 0l5.15-5.149V4.09a.819.819 0 0 0 1.636 0V.818a.819.819 0 0 0-.506-.755z"/></svg>