<svg height="600" preserveAspectRatio="xMidYMid" viewBox="0 0 450 450" width="600" xmlns="http://www.w3.org/2000/svg"><g transform="matrix(.05244 0 0 -.0538 -10.784 465.335)"><path d="M3860 8634c-1218-119-2295-746-3007-1749-270-380-550-984-631-1362-11-51-18-93-16-93s16 24 30 53c126 249 374 636 550 857 121 152 396 432 524 534 485 385 1037 562 1560 502 496-57 940-273 1319-641 138-134 216-227 313-371 134-197 223-385 282-594 30-107 36-142 71-390 94-653 181-1000 333-1323 234-496 577-771 1052-843 314-47 822 21 1175 157 340 131 626 360 787 631 82 139 130 269 165 455 24 126 24 467-1 623-123 790-403 1431-890 2040-128 160-435 467-596 596-664 533-1422 843-2244 919-196 18-588 18-776-1z"/><path d="M2345 5919c-338-21-601-84-865-207-118-55-295-177-393-271-51-48-153-175-199-247-70-109-121-236-157-385-46-194-51-237-51-446 0-767 248-1567 693-2232 542-811 1344-1401 2281-1680 167-49 312-85 393-96 18-3 53-9 78-15 26-6 70-13 98-15 28-3 90-11 137-19 103-17 201-21 470-21 262 0 371 4 441 16 62 10 136 20 159 21 8 0 35 5 60 10 43 9 66 13 137 23 17 3 44 10 58 15 15 6 30 8 35 5s11-1 15 5 10 8 15 5 20-1 34 5c15 5 37 12 49 14 77 15 329 93 462 144 904 345 1659 989 2140 1826 74 130 203 387 250 501 39 94 107 296 102 302-2 1-47-65-101-147-211-323-392-547-645-800-541-539-1104-803-1711-804-310 0-583 62-865 198-246 119-426 246-629 445-300 295-502 626-606 999-39 138-57 260-70 469-25 421-40 586-71 788-89 582-259 971-543 1243-220 211-484 321-839 351-140 12-169 12-362 0z"/></g></svg>