<svg height="800" viewBox="0 0 32 32" width="800" xmlns="http://www.w3.org/2000/svg"><path d="M26 0H6a2 2.286 0 0 0-2 2.286v4.571a2 2.286 0 0 0 2 2.286h9v7.051l-2.59-2.948L11 14.857l5 5.714 5-5.714-1.41-1.611L17 16.194V9.143h9a2 2.286 0 0 0 2-2.286V2.286A2 2.286 0 0 0 26 0zM6 2.286h4v4.571H6zm20 4.571H12V2.286h14zm0 16H6a2 2.286 0 0 0-2 2.286v4.571A2 2.286 0 0 0 6 32h20a2 2.286 0 0 0 2-2.286v-4.571a2 2.286 0 0 0-2-2.286zM6 25.143h14v4.571H6zm20 4.571h-4v-4.571h4z"/><path d="M0 0h32v32H0z" fill="none"/></svg>