<svg fill="none" height="800" viewBox="0 0 24 24" width="800" xmlns="http://www.w3.org/2000/svg"><g stroke="#000" stroke-width="1.5" transform="matrix(1.11609 0 0 1.11607 -1.391 -1.39)"><path d="M4.728 16.137c-1.545-1.546-2.318-2.318-2.605-3.321s-.042-2.068.45-4.197l.283-1.228c.413-1.792.62-2.688 1.233-3.302s1.51-.82 3.302-1.233l1.228-.284c2.13-.491 3.194-.737 4.197-.45s1.775 1.061 3.32 2.606l1.83 1.83C20.657 9.248 22 10.592 22 12.262s-1.345 3.015-4.034 5.704S13.933 22 12.262 22s-3.015-1.345-5.704-4.034l-1.83-1.83z"/><circle cx="8.607" cy="8.879" r="2" transform="rotate(-45 8.607 8.879)"/><path d="M11.542 18.5l6.979-6.98" stroke-linecap="round"/></g></svg>