<svg width="600" height="600" xmlns="http://www.w3.org/2000/svg"><path fill-rule="evenodd" d="M314.485 110.567c-13.047-5.088-26.519-7.744-40.41-7.744-20.894 0-38.077 6.685-51.549 19.942l-116.25 116.143 12.094 12.202-44.126 44.44L0 221.192l44.121-44.126 13.682 13.364L173.415 74.927c15.908-15.8 32.988-23.652 51.23-23.652 30.655 0 60.567 19.731 89.84 59.292zm176.413-32.886c12.636 0 24.765 2.154 36.055 6.104L498.27 114.83c-65.162 70.494 8.374 111.28 73.174 62.886l24.995-18.662a109.28 109.28 0 0 1 3.56 27.73c0 60.259-48.843 109.107-109.107 109.107a108.575 108.575 0 0 1-54.034-14.302l-52.989 56.256 149.64 143.214-67.666 67.666a336625 336625 0 0 1-141.515-147.667l-92.911 98.624a40.674 40.674 0 1 1-66.705-46.114l-.058-.058.356-.308a40.918 40.918 0 0 1 10.41-8.926l104.498-89.58L151.08 219.752l53.463-53.458 139.513 133.42 57.93-49.669a108.619 108.619 0 0 1-20.196-63.257c0-60.265 48.843-109.108 109.108-109.108zm-351.102 24.19l-53.14 53.14-10.186-10.18 53.14-53.146z"/></svg>