<svg height="600" width="600" xmlns="http://www.w3.org/2000/svg"><path d="M496.964 116.416c28.42 0 54.204 11.573 72.858 30.227S600 191.08 600 219.5c0 28.47-11.524 54.204-30.178 72.858s-44.437 30.178-72.858 30.178c-28.469 0-54.203-11.524-72.857-30.178s-30.178-44.437-30.178-72.858c0-28.42 11.524-54.203 30.178-72.857s44.437-30.227 72.857-30.227zm-338.797 94.539c1.758.097 3.516 0 5.323-.391l-.684-5.274c.098-.44.098-.928.098-1.416-.049-.977-.244-1.953-.635-2.783l-4.248-33.792c2.783-10.694 7.08-19.045 12.745-25.149 5.909-6.397 13.38-10.352 22.267-12.061 11.769-.83 15.285 7.764 27.053 15.235 35.745 22.854 65.972 30.57 110.117 31.106l-5.03 25.393c-1.807 1.514-2.881 3.809-2.637 6.348a7.404 7.404 0 0 0 .83 2.784l-.342 1.709c.586.049 1.124.049 1.71.097 1.464 1.417 3.564 2.247 5.762 2.051 7.178-.634 11.475-.146 12.5 1.954 1.563 3.174.098 9.913-4.785 20.998l-24.074 39.7c-8.936 14.747-18.02 29.495-29.446 40.189-10.89 10.206-24.318 16.993-42.63 16.945-16.896-.05-29.69-6.593-40.238-16.213-11.085-10.108-20.021-23.976-28.615-37.6L151.77 246.7l-.097-.196c-6.495-9.62-9.816-17.92-10.011-24.22-.049-2.002.244-3.76.879-5.176a7.491 7.491 0 0 1 2.637-3.028c2.344-1.563 5.86-2.49 10.548-2.637.927-.049 1.709-.195 2.441-.488zM172.72 371.66l38.382 112.851 19.289-66.949-9.474-10.352c-4.248-6.202-5.176-11.671-2.832-16.359 5.128-10.157 15.724-8.253 25.637-8.253 10.401 0 23.195-1.953 26.418 11.037 1.074 4.346-.293 8.887-3.32 13.575l-9.474 10.352 19.289 66.95 34.768-112.852c25.051 22.56 99.276 27.102 126.866 42.484 8.741 4.883 16.603 11.085 22.951 19.435 9.62 12.697 15.529 29.3 17.14 50.395l5.762 91.267c-1.416 14.894-9.864 23.488-26.515 24.758H26.516C9.864 598.73 1.416 590.136 0 575.242l5.762-91.267c1.612-21.047 7.52-37.65 17.14-50.395 6.348-8.399 14.21-14.552 22.951-19.435 27.64-15.382 101.815-19.923 126.866-42.484zm172.376-170.52l1.319-54.35c-1.612-22.609-9.083-39.7-20.998-52.543-29.25-31.643-83.845-39.75-125.01-24.856-6.934 2.49-13.527 5.665-19.484 9.523-16.994 10.84-30.764 26.613-36.233 46.195a77.899 77.899 0 0 0-2.637 13.868c-.88 19.045-.391 41.703.927 59.966-2.148.781-4.102 1.758-5.81 2.93a21.877 21.877 0 0 0-7.814 9.083c-1.611 3.467-2.344 7.422-2.197 11.72.244 8.984 4.395 19.923 12.354 31.838l21.438 34.085c9.082 14.405 18.605 29.152 31.154 40.58 13.039 11.963 29.007 20.02 50.151 20.07 22.658.048 39.212-8.302 52.641-20.901 12.892-12.061 22.512-27.688 31.985-43.265l24.465-40.238c.146-.293.293-.537.44-.83 6.836-15.529 8.252-26.418 4.59-33.743-2.393-4.639-6.153-7.618-11.28-9.132zm163.637 36.917v-5.81c0-.635.537-1.221 1.172-1.173l43.949 2.98-43.95 5.224c-.634.05-1.171-.586-1.171-1.22zm-17.384-15.284c6.836 0 12.354 5.567 12.354 12.403a12.338 12.338 0 0 1-12.354 12.355c-6.837 0-12.355-5.567-12.355-12.355 0-6.885 5.518-12.403 12.355-12.403zm-5.225-7.715h10.45a1.19 1.19 0 0 0 1.172-1.172l-6.056-43.95-6.738 43.95c0 .634.537 1.172 1.172 1.172zm69.488-54.253a82.619 82.619 0 0 0-58.648-24.27c-22.902 0-43.656 9.279-58.647 24.27a82.775 82.775 0 0 0-24.318 58.696c0 22.903 9.278 43.607 24.318 58.648 14.991 14.991 35.745 24.318 58.647 24.318 22.903 0 43.656-9.278 58.648-24.27 14.991-14.991 24.318-35.745 24.318-58.647 0-22.951-9.278-43.705-24.318-58.745z"/></svg>