<svg height="600" width="600" xmlns="http://www.w3.org/2000/svg"><path d="M145.02 325.664L132.422 245c123.633-30.566 205.713-33.106 335.254 0l-13.282 80.664c-125.244-33.545-198.583-29.297-309.374 0zm316.357 7.031l11.035-59.033c44.726 9.863 85.45 23.926 127.588 40.918l-85.987 8.984c14.747 16.602 28.223 34.668 40.43 54.053-47.607-16.895-90.039-29.443-125.537-36.084l2.442-15.87zm-322.754 1.27l-11.035-59.033C82.862 284.795 42.09 298.808 0 315.849l85.987 8.985c-14.747 16.601-28.223 34.668-40.43 54.053 47.607-16.895 90.039-29.444 125.537-36.084l-2.442-15.87z" fill-rule="evenodd"/></svg>