<svg fill-rule="evenodd" height="600" image-rendering="optimizeQuality" shape-rendering="geometricPrecision" width="600" xmlns="http://www.w3.org/2000/svg"><path d="M300.003 280.495c74.19 0 134.355 60.152 134.355 134.355 0 74.203-60.164 134.344-134.355 134.344-74.203 0-134.356-60.14-134.356-134.344 0-74.203 60.153-134.355 134.356-134.355zm121.628-83.554a198.316 198.316 0 0 0-11.039 5.917c-10.98 6.434-21.832 14.31-32.906 23.344l-23.637-27.058a195.893 195.893 0 0 1 26.367-20.543 180.928 180.928 0 0 1 23.344-12.95 167.377 167.377 0 0 1 9.762-4.535c-15.574-27.597-37.992-47.367-63.387-59.566-50.46-24.164-113.296-18.914-157.746 15.61-25.535 19.78-44.917 49.37-52.394 88.581l-2.344 12.246-12.21 2.157c-11.966 2.097-22.641 4.98-32.028 8.636-9.082 3.528-17.18 7.875-24.258 12.996-5.672 4.102-10.558 8.696-14.695 13.664-12.856 15.387-18.809 34.664-18.668 54.211.152 19.805 6.598 39.832 18.516 56.285 4.441 6.106 9.562 11.73 15.421 16.606 5.965 4.922 12.645 9.023 20.168 12.117 7.465 3.07 15.727 5.262 24.856 6.539h13.289c-.363 4.5-.54 9.059-.54 13.64a172.57 172.57 0 0 0 1.43 22.29h-14.765l-2.25-.188c-13.031-1.664-24.856-4.746-35.59-9.176-11.086-4.605-20.906-10.511-29.543-17.73a126.351 126.351 0 0 1-21.48-23.05C8.99 364.53.202 337.083.003 309.733c-.187-27.633 8.402-55.114 26.965-77.391 6-7.219 13.066-13.863 21.176-19.723 9.433-6.832 20.214-12.597 32.437-17.32 8.39-3.281 17.367-6.024 26.848-8.215 10.746-42.668 33.644-75.527 63.082-98.343 55.16-42.739 132.55-49.559 195.163-19.477 34.219 16.465 64.102 43.851 83.496 82.37 7.805-1.218 15.621-1.85 23.38-1.757 81.162.61 128.271 69.762 127.44 145.36-.34 30.808-8.638 61.476-25.641 84.034-11.075 14.696-25.29 26.707-42.328 36.223-16.395 9.187-35.543 16.172-57.024 21.152l-3.914.469a174.507 174.508 0 0 0 .82-36.645c16.043-4.09 30.293-9.457 42.493-16.265 12.843-7.184 23.343-15.926 31.195-26.414 12.21-16.266 18.222-39.258 18.457-62.848.668-55.336-31.043-108.843-91.746-109.218-16.746-.153-34.172 3.902-50.672 11.215zM355.75 406.19c4.277.175 7.312 1.593 9.058 4.265 4.758 7.125-1.723 14.168-6.234 19.137L308.16 484.74c-4.77 5.285-11.59 5.285-16.36 0-6.515-7.606-39.41-42.856-51.562-56.496-4.219-4.746-9.434-11.215-5.04-17.79 1.794-2.671 4.794-4.089 9.071-4.265h25.946V368.49c0-6.844 5.601-12.469 12.468-12.469h34.64c6.856 0 12.481 5.614 12.481 12.469v37.7z"/></svg>