<svg xmlns="http://www.w3.org/2000/svg" width="800" height="800" viewBox="0 0 24 24"><path fill-rule="evenodd" d="M7.445.06L7.592 0h14.954l.148.06 1.246 1.247.06.147v14.953l-.06.149-1.247 1.245-.147.06h-7.741v-.206a2.104 2.104 0 0 0-.58-1.454h8.115V1.661H7.8v7.7a6.06 6.06 0 0 0-1.662-.173V1.454l.06-.148L7.445.061zm10.079 9.995l-2.97 2.961a2.115 2.115 0 0 0-.369-.494l-.443-.444 2.365-2.363-3.814-3.906.86-.881 4.37 4.37zm-7.35 4.238l1.395-1.396 1.121 1.12-1.819 1.82.233.232v1.586h1.586v1.534h-1.586v.105a6.227 6.226 0 0 1-.434 1.534l2.02 2.051L11.57 24l-1.746-1.745A4.556 4.556 0 0 1 6.345 24a4.558 4.558 0 0 1-3.48-1.745L1.122 24 0 22.88l2.02-2.052a6.228 6.227 0 0 1-.434-1.502v-.085H0v-1.586h1.586V16.07l.233-.233L0 14.018l1.121-1.121 1.396 1.396a3.944 3.944 0 0 1 7.656 0zm-2.147-.7a2.38 2.38 0 0 0-4.061 1.683h4.758a2.38 2.38 0 0 0-.697-1.682zm.475 7.805a3.521 3.521 0 0 0 1.016-2.157v-2.379H3.173v2.38a3.521 3.521 0 0 0 3.172 3.172 3.521 3.521 0 0 0 2.157-1.015z"/></svg>