<svg height="256" viewBox="0 0 32 32" width="256" xmlns="http://www.w3.org/2000/svg"><path d="M30.857 18.266v-1.142a1.143 1.142 0 1 0-2.286 0v1.142H27.43v-1.142a1.143 1.142 0 1 0-2.286 0v1.142H24v-1.142a1.143 1.142 0 1 0-2.286 0v1.142h-1.143v-1.142a1.143 1.142 0 1 0-2.285 0v1.142h-1.143v-1.142a1.143 1.142 0 1 0-2.286 0v1.142h-1.143v-1.142a1.143 1.142 0 1 0-2.285 0v1.142h-1.143v-1.142a1.143 1.142 0 1 0-2.286 0v1.142H6.857v-1.142a1.143 1.142 0 1 0-2.286 0v1.142H3.43v-1.142a1.143 1.142 0 1 0-2.286 0v1.142A1.143 1.142 0 0 0 0 19.408v9.133a1.143 1.142 0 0 0 1.143 1.142v1.141a1.143 1.142 0 1 0 2.286 0v-1.141H4.57v1.141a1.143 1.142 0 1 0 2.286 0v-1.141H8v1.141a1.143 1.142 0 1 0 2.286 0v-1.141h1.143v1.141a1.143 1.142 0 1 0 2.285 0v-1.141h1.143v1.141a1.143 1.142 0 1 0 2.286 0v-1.141h1.143v1.141a1.143 1.142 0 1 0 2.285 0v-1.141h1.143v1.141a1.143 1.142 0 1 0 2.286 0v-1.141h1.143v1.141a1.143 1.142 0 1 0 2.286 0v-1.141h1.142v1.141a1.143 1.142 0 1 0 2.286 0v-1.141A1.143 1.142 0 0 0 32 28.54v-9.133a1.143 1.142 0 0 0-1.143-1.142zM2.286 27.4v-6.85h27.428v6.85zM9.143 4.566v10.275a1.143 1.142 0 1 0 2.286 0V5.708h6.384l2.758 2.756v6.377a1.143 1.142 0 1 0 2.286 0V7.99a1.143 1.142 0 0 0-.335-.806l-3.428-3.426a1.143 1.142 0 0 0-.808-.335h-8a1.143 1.142 0 0 0-1.143 1.142z"/><path d="M6.857 13.7A1.143 1.142 0 0 0 8 12.557V2.284h8A1.143 1.142 0 1 0 16 0H6.857a1.143 1.142 0 0 0-1.143 1.142v11.415A1.143 1.142 0 0 0 6.857 13.7zm11.429-4.567h-4.572a1.143 1.142 0 1 0 0 2.283h4.572a1.143 1.142 0 1 0 0-2.283zm0 3.425h-4.572a1.143 1.142 0 1 0 0 2.283h4.572a1.143 1.142 0 1 0 0-2.283z"/></svg>