<svg width="600" height="600" viewBox="0 0 158.75 158.75" xmlns="http://www.w3.org/2000/svg"><path d="M141.967 11.338h-39.914a5.67 5.67 0 1 0 0 11.339h39.914a5.454 5.454 0 0 1 5.443 5.443v28.575H85.045a5.67 5.67 0 1 0 0 11.34h62.365v34.018H56.697V68.035a5.67 5.67 0 1 0-11.338 0v73.933A16.805 16.805 0 0 0 62.14 158.75h79.827a16.805 16.805 0 0 0 16.781-16.782V28.12a16.805 16.805 0 0 0-16.782-16.782zm5.443 130.63a5.454 5.454 0 0 1-5.443 5.442H62.14a5.454 5.454 0 0 1-5.443-5.442v-28.575h90.713zM62.367 62.365a5.678 5.678 0 0 0 2.534-.595L87.58 50.43a5.676 5.676 0 0 0 3.136-5.074v-28.35c0-.072-.029-.135-.029-.21-.006-.158-.045-.311-.067-.47a5.573 5.573 0 0 0-.42-1.553c-.045-.096-.034-.204-.08-.3-.028-.063-.085-.097-.118-.154a5.585 5.585 0 0 0-1.22-1.553c-.09-.08-.199-.13-.295-.204-.289-.227-.572-.46-.907-.624L64.901.6a5.67 5.67 0 0 0-5.074 0L37.149 11.94c-.334.164-.612.396-.902.624-.096.073-.203.118-.295.203a5.46 5.46 0 0 0-1.213 1.554c-.034.057-.09.09-.118.153-.052.096-.041.204-.086.302a5.573 5.573 0 0 0-.42 1.552c-.022.159-.062.312-.068.47 0 .074-.028.137-.028.21v28.35a5.674 5.674 0 0 0 3.136 5.074l22.677 11.34a5.678 5.678 0 0 0 2.535.593zm5.67-14.843V31.85l11.339-5.67v15.672zm-5.67-35.514l10.001 5-10.001 5.001-10.001-5zM45.359 26.182l11.338 5.67v15.671l-11.338-5.67zM22.679 5.668H5.673a5.67 5.67 0 1 0 0 11.34h17.006a5.67 5.67 0 1 0 0-11.34zm0 17.009H5.673a5.67 5.67 0 1 0 0 11.34h17.006a5.67 5.67 0 1 0 0-11.34zm0 17.01H5.673a5.67 5.67 0 1 0 0 11.339h17.006a5.67 5.67 0 1 0 0-11.34zm79.374 11.339a5.67 5.67 0 0 0 5.669-5.67v-11.34a5.67 5.67 0 1 0-11.339 0v11.34a5.67 5.67 0 0 0 5.67 5.67zm22.678-5.67v-11.34a5.67 5.67 0 1 0-11.339 0v11.34a5.67 5.67 0 1 0 11.339 0zm17.008 0v-11.34a5.67 5.67 0 1 0-11.339 0v11.34a5.67 5.67 0 1 0 11.34 0zm-17.008 45.358v-11.34a5.67 5.67 0 1 0-11.339 0v11.34a5.67 5.67 0 1 0 11.339 0zm-17.009 0v-11.34a5.67 5.67 0 1 0-11.339 0v11.34a5.67 5.67 0 1 0 11.339 0zm34.017 0v-11.34a5.67 5.67 0 1 0-11.339 0v11.34a5.67 5.67 0 1 0 11.34 0zm-39.686 51.027a5.67 5.67 0 0 0 5.669-5.67v-11.34a5.67 5.67 0 1 0-11.339 0v11.34a5.67 5.67 0 0 0 5.67 5.67zm17.009 0a5.67 5.67 0 0 0 5.669-5.67v-11.34a5.67 5.67 0 1 0-11.339 0v11.34a5.67 5.67 0 0 0 5.67 5.67zm17.008 0a5.67 5.67 0 0 0 5.67-5.67v-11.34a5.67 5.67 0 1 0-11.34 0v11.34a5.67 5.67 0 0 0 5.67 5.67z"/></svg>