<svg fill="none" height="600" viewBox="0 0 18 18" width="600" xmlns="http://www.w3.org/2000/svg"><g stroke="#000" stroke-width="1.5" transform="matrix(.8372 0 0 .8372 0 .78)"><path d="M20.75 17.75h-8m-12 0h8m2-2v-3" stroke-linecap="round"/><circle cx="10.75" cy="17.75" r="2"/><path d="M12.75 12.75h-9a3 3 0 1 1 0-6h14a3 3 0 1 1 0 6h-1m-6-12h7a3 3 0 1 1 0 6h-14a3 3 0 1 1 0-6h3m5 3h6m-6 6h6" stroke-linecap="round"/></g><g fill="#000" transform="scale(.8372)"><circle cx="4.75" cy="3.75" r="1"/><circle cx="4.75" cy="9.75" r="1"/></g></svg>