<svg height="600" width="600" fill-rule="evenodd" xmlns="http://www.w3.org/2000/svg"><path d="M287.87.003c-33.721 0-50.924 1.075-79.807 20.184-42.616 28.15-68.763 76.875-79.759 144.513-2.297 33.721-3.763 91.976 19.793 119.149l27.515-.684 13-.342 19.793 22.97c4.643 5.375 9.383 10.8 14.563 16.03-3.665 5.473-20.135 19.45-34.747 31.815l-17.35 14.954C133.778 383.01 97.515 397.77 69.414 415.46 30.13 440.091 10.279 481.144.896 525.47c-2.884 39-.049 37.045 27.368 36.605l364.875 1.124c-1.661-16.567-.146-34.112 4.936-52.048 12.854-45.06 45.744-83.326 87.236-107.176-24.729-13-53.465-24.582-82.74-35.871l-11.044-9.726c-12.316-10.752-26.147-22.92-31.767-29.86 8.797-7.722 16.225-16.568 23.556-25.414l12.414-14.954c.195-.245 1.124-1.32 2.54-2.933.685-.83 1.467-1.661 2.249-2.639h27.124c40.026-85.672 14.612-212.787-67.15-266.643C335.324-.633 317.291.003 287.87.003zm-43.056 61.236c10.85 35.138 35.236 64.168 76.728 85.574 19.842 14.705 39.049 32.5 57.571 52.928 3.275-13.538-9.285-30.056-24.484-46.966 14.123 6.989 27.026 16.665 36.213 35.432 10.654 21.748 10.508 40.075 6.99 63.68-1.027 6.842-2.445 13.342-4.253 19.597-1.222.49-2.297 1.173-3.03 2.102a237.076 237.076 0 0 1-4.936 5.864l-2.59 3.08-12.413 14.954c-9.481 11.387-19.06 22.774-31.18 31.082-11.583 7.918-25.805 13.147-45.304 13.098-17.936-.049-31.572-5.083-42.763-12.609-11.778-7.82-21.21-18.571-30.3-29.03l-22.677-26.341c-.83-.978-2.004-1.662-3.323-2.102-22.383-77.706-11.485-149.156 49.751-210.343zM563.11 455.457l11.783 11.783c3.103 3.103 3.103 8.176 0 11.274L565.407 488a63.093 63.093 0 0 1 5.884 15.703h12.291c4.389 0 7.976 3.587 7.976 7.976v16.665a8.015 8.015 0 0 1-7.976 7.976h-13.415a63.11 63.11 0 0 1-6.954 15.257l8.699 8.7c3.103 3.103 3.103 8.176 0 11.274l-11.783 11.783a8.015 8.015 0 0 1-11.275 0l-9.49-9.49a62.947 62.947 0 0 1-15.703 5.888v12.291a8.015 8.015 0 0 1-7.976 7.976h-16.66c-4.389 0-7.976-3.587-7.976-7.976v-13.415a62.996 62.996 0 0 1-15.253-6.954l-8.7 8.699a8.015 8.015 0 0 1-11.279 0l-11.783-11.783c-3.103-3.103-3.103-8.176 0-11.275l9.491-9.49a62.898 62.898 0 0 1-5.884-15.703h-12.296a8.015 8.015 0 0 1-7.976-7.976v-16.665c0-4.389 3.587-7.976 7.976-7.976h13.415a63.11 63.11 0 0 1 6.955-15.258l-8.7-8.699c-3.103-3.103-3.103-8.176 0-11.274l11.783-11.783c3.104-3.104 8.177-3.104 11.275 0l9.486 9.486a63.093 63.093 0 0 1 15.703-5.89v-12.29c0-4.39 3.587-7.976 7.975-7.976h16.666a8.015 8.015 0 0 1 7.975 7.975v13.41a63.058 63.058 0 0 1 15.263 6.955l8.694-8.699a8.015 8.015 0 0 1 11.28 0zm-53.646 29.69c18.092 0 32.758 14.67 32.758 32.758 0 18.087-14.671 32.758-32.758 32.758-18.088 0-32.759-14.67-32.759-32.758s14.671-32.759 32.759-32.759z"/></svg>