<svg height="600" width="600" xmlns="http://www.w3.org/2000/svg"><path d="M122.872 267.878A194.66 194.66 0 0 0 197.2 397.294a191.34 191.34 0 0 0 25.004 16.36 102.556 102.556 0 0 0 17.63-24.418 87.27 87.27 0 0 0 4.884-12.502 151.001 151.001 0 1 1 127.95 5.372 189.289 189.289 0 0 1 7.667 44.49 194.368 194.368 0 0 0 62.169-35.895l112.323 86.928L600 413.068l-109.246-84.145a194.807 194.807 0 1 0-367.882-61.045zM0 599.963V429.526h73.938a89.37 89.37 0 0 1 32.818 5.274 43.122 43.122 0 0 1 20.022 14.65 37.946 37.946 0 0 1 6.789 22.563 35.7 35.7 0 0 1-15.677 30.278 43.952 43.952 0 0 1-17.288 7.228v1.66a43.562 43.562 0 0 1 20.023 5.763 38.385 38.385 0 0 1 14.31 14.065 40.534 40.534 0 0 1 5.273 21 43.952 43.952 0 0 1-7.227 24.906 48.836 48.836 0 0 1-20.658 16.897 74.377 74.377 0 0 1-32.036 6.153zm46.297-36.968H67.98a28.667 28.667 0 0 0 17.434-4.347 15.14 15.14 0 0 0 5.86-12.941 18.118 18.118 0 0 0-2.734-10.158 17.434 17.434 0 0 0-7.814-6.349 30.034 30.034 0 0 0-12.111-2.149H46.297zm0-64.61h18.997a28.325 28.325 0 0 0 10.744-1.905 16.458 16.458 0 0 0 7.276-5.519 14.65 14.65 0 0 0 2.637-8.888 14.162 14.162 0 0 0-5.664-12.111 23.148 23.148 0 0 0-14.31-4.249H46.444v32.671zm252.53-252.532h31.696l-15.237-50.594h-1.221zm41.12 31.158h-50.544l-8.84 29.301h-44.929l50.594-153.345h56.894l50.594 153.345h-44.88zM183.673 582.92L181.67 436.41l37.018 36.335c55.087-37.067 80.58-84.243 72.62-146.9 68.028 76.331 54.256 160.525.976 219.421l37.75 37.115-146.508.538z"/></svg>