<svg width="600" height="600" viewBox="0 0 18 18" fill="none" xmlns="http://www.w3.org/2000/svg"><path d="M8.092 15.09H3.735c-1.017 0-1.526 0-1.915-.198a1.816 1.816 0 0 1-.793-.793C.83 13.71.83 13.202.83 12.185V5.287c0-1.017 0-1.526.197-1.915a1.816 1.816 0 0 1 .794-.793c.388-.197.897-.197 1.914-.197h10.53c1.017 0 1.526 0 1.915.197a1.816 1.816 0 0 1 .793.794c.197.388.197.897.197 1.914v2.721m-.356-2.666l-4.591 3.06c-1.166.777-1.748 1.165-2.376 1.317a3.632 3.632 0 0 1-1.693 0c-.63-.152-1.212-.54-2.376-1.317L.962 5.195M17.17 11.61h-.34c-.93 0-1.74-.376-2.383-1.059-.643.683-1.453 1.06-2.383 1.06h-.34v1.116c0 2.01 1.157 3.7 2.724 4.179 1.565-.478 2.722-2.168 2.722-4.178z" stroke="#000" stroke-width="2.189" stroke-linecap="round" stroke-linejoin="round"/></svg>