<svg fill-rule="evenodd" height="600" image-rendering="optimizeQuality" shape-rendering="geometricPrecision" width="600" xmlns="http://www.w3.org/2000/svg"><path d="M137.056 0H391.9a10.695 10.695 0 0 1 8.554 4.265l129.774 140.399a10.618 10.618 0 0 1 2.834 7.238h.056v377.923c0 19.213-7.946 36.766-20.678 49.498C499.71 592.054 482.153 600 462.942 600H137.056c-19.235 0-36.808-7.914-49.546-20.65-12.705-12.706-20.628-30.234-20.628-49.525V70.175c0-19.31 7.895-36.859 20.606-49.57C100.2 7.896 117.746 0 137.056 0zM88.307 397.22h423.386V173.133c-35.744 0-84.007 5.341-113.032-19.452-14.833-12.676-23.154-30.769-24.803-53.267a10.681 10.681 0 0 1-.102-1.469v-77.52h-236.7c-13.395 0-25.584 5.49-34.422 14.328-8.839 8.837-14.327 21.026-14.327 34.424zm423.386 21.665H88.307v110.94c0 13.37 5.512 25.54 14.35 34.379 8.865 8.863 21.069 14.371 34.399 14.371h325.886c13.3 0 25.486-5.532 34.352-14.4 8.865-8.866 14.4-21.048 14.4-34.35zm-64.978-122.453h-18.436v21.414h-28.364v-88.635h44.673c20.327 0 30.49 10.92 30.49 32.76 0 12.007-2.647 20.894-7.941 26.662-1.986 2.174-4.728 4.018-8.226 5.53-3.498 1.513-7.563 2.27-12.196 2.27zm-18.436-44.53v21.84h6.523c3.404 0 5.886-.356 7.445-1.064 1.56-.71 2.34-2.34 2.34-4.892v-9.927c0-2.554-.78-4.185-2.34-4.893-1.56-.71-4.041-1.064-7.445-1.064zm-111.255 65.944v-88.635h45.949c8.508 0 14.583 1.655 18.223 4.963 3.64 3.309 5.46 8.131 5.46 14.465s-1.159 11.229-3.475 14.679c-2.316 3.45-5.412 5.697-9.288 6.737v.85c11.44 1.986 17.16 9.785 17.16 23.4 0 7.09-1.893 12.788-5.674 17.09-3.782 4.3-9.595 6.451-17.443 6.451zm39.425-35.312h-11.061V297h10.919c3.971 0 5.956-2.41 5.956-7.232s-1.938-7.233-5.814-7.233zm-2.128-33.895h-8.933v13.19h8.792c3.593 0 5.39-2.198 5.39-6.594 0-4.397-1.75-6.596-5.249-6.596zm-54.67 35.74h-28.363v10.776h34.745v22.691h-63.108v-88.635h62.398l-3.545 22.69h-30.49v11.913h28.363zm-92.394-55.168h29.64L223 317.846h-37.014l-6.524-32.617h-1.7l-6.383 32.617h-37.014l-13.898-88.635h29.64l6.665 49.494h.85l10.211-49.494h21.699l10.069 49.494h.85zm.74 281.422c-6.098 0-11.046-4.947-11.046-11.048 0-6.1 4.948-11.046 11.047-11.046h179.545c6.1 0 11.046 4.947 11.046 11.046 0 6.1-4.947 11.048-11.046 11.048zM395.18 29.963v68.936c1.219 16.626 7.048 29.725 17.374 38.547 22.34 19.076 67.46 14.262 95.158 14.262z" fill-rule="nonzero"/></svg>