<svg height="800" width="800" xmlns="http://www.w3.org/2000/svg"><path d="M435.68 132.302c66.672 7.032 127.55 33.727 176.707 74.095l33.922-35.42c6.902-7.227 18.491-7.357 25.718-.39l22.789 22.137c7.162 6.967 7.292 18.491.39 25.653l-34.833 36.331c46.553 57.492 74.485 130.74 74.485 210.434C734.858 650.052 584.911 800 400 800c-184.91.065-334.858-149.882-334.858-334.793 0-83.47 30.601-159.844 81.126-218.507l-39.196-36.852c-7.292-6.837-7.487-18.426-.585-25.653l21.941-22.984c6.902-7.227 18.426-7.422 25.654-.586l41.735 39.261a332.547 332.547 0 0 1 181.2-68.625V58.599h-64.459c-8.594 0-15.626-7.032-15.626-15.627V15.626C296.932 7.032 303.964 0 312.558 0h187.515c8.595 0 15.626 7.032 15.626 15.626v27.346c0 8.595-7.031 15.627-15.626 15.627h-64.458v73.703zm-62.96 210.37h28.582c5.209 0 9.506 4.296 9.506 9.505v119.476h87.963c5.209 0 9.506 4.297 9.506 9.506v28.583c0 5.209-4.297 9.506-9.506 9.506H363.213v-167.07a9.52 9.52 0 0 1 9.506-9.507zM400 193.31c150.142 0 271.897 121.755 271.897 271.897S550.142 737.104 400 737.104 128.103 615.35 128.103 465.207c0-150.143 121.755-271.897 271.897-271.897z" fill-rule="evenodd"/></svg>