<svg height="800" viewBox="0 0 512 512" width="800" xmlns="http://www.w3.org/2000/svg"><path d="M336.406 166.563l-76.5 12.094h-7.812c-3.906 0-65.61-10.344-76.5-12.094-18.72-3.03-34.345 2.266-39.814 4.531-22.969 9.531-15.25 31.813-10.156 40.064 7.047 11.344 33.781 41.125 60.125 44.609 34.345 4.516 64-21.172 70.25-21.172 6.235 0 35.907 25.688 70.25 21.172 26.345-3.484 53.095-33.266 60.126-44.61 5.094-8.25 12.813-30.53-10.156-40.063-5.485-2.266-21.094-7.563-39.813-4.53zm-151.75 54.422c-11.095-10.735-9.25-21.517 3.687-22.392 12.97-.906 34.814 4.5 35.173 11.656.922 17.908-27.767 21.502-38.86 10.736zm142.688 0c-11.11 10.766-39.797 7.172-38.86-10.735.36-7.156 22.204-12.563 35.142-11.656 12.968.875 14.812 11.656 3.718 22.39zm75.406-105.079c0-5.03-5.219-15.094-14.578-17.125C374.656 19.156 296.562 0 256 0c-40.563 0-118.657 19.156-132.188 98.781-9.375 2.031-14.563 12.094-14.563 17.125v33.25H402.75zm-46.031 266.329c0-20.203-6.281-42.297-26.234-42.297H181.499c-19.938 0-26.234 22.094-26.234 42.297 0 4.797-93.359 28.828-93.359 82.656 0 12.516 30.422 47.11 193.032 47.11h2.109c162.625 0 193.047-34.595 193.047-47.11 0-53.827-93.375-77.86-93.375-82.656z"/></svg>