<svg xmlns="http://www.w3.org/2000/svg" height="800" viewBox="0 0 512 512" width="800"><path d="M127.08 247.823l50.032-76.907s-74.735-29.688-109.549-3.078C32.751 194.464 0 268.184 0 268.184L37.11 289.7c0-.001 46.97-91.017 89.97-41.877zM264.177 384.92l76.907-50.032s29.689 74.736 3.078 109.549C317.537 479.234 243.816 512 243.816 512l-21.5-37.11s91.018-46.97 41.86-89.97zm-57.486-22.031L193.488 349.7c-24 62.376-80.377 49.188-80.377 49.188s-13.188-56.375 49.189-80.376l-13.188-13.188c-34.798-6-79.19 35.985-86.393 76.767-7.188 40.782-8.391 75.564-8.391 75.564s34.782-1.188 75.58-8.39 82.783-51.58 76.783-86.377zM505.228 6.773c-54.439-25.516-192.3 22.203-268.974 123.893-58.423 77.454-89.69 129.642-89.69 129.642l46.408 46.407 12.313 12.313 46.392 46.392s52.22-31.25 129.674-89.657c101.658-76.69 149.393-214.551 123.877-268.99zM274.63 237.37c-12.813-12.813-12.813-33.594 0-46.407s33.579-12.813 46.407.016c12.813 12.814 12.813 33.579 0 46.392-12.828 12.812-33.595 12.812-46.407 0zm76.923-76.907c-16.563-16.578-16.563-43.423 0-59.985 16.548-16.563 43.407-16.563 59.97 0s16.564 43.407 0 59.985c-16.563 16.547-43.422 16.547-59.97 0z"/></svg>