<svg fill-rule="evenodd" image-rendering="optimizeQuality" shape-rendering="geometricPrecision" width="600" height="600" xmlns="http://www.w3.org/2000/svg"><path d="M361.104 129.175c-4.512 5.567-7.266 11.942-8.578 18.516-1.805 9.082-.926 18.55 1.78 26.86 1.548 4.792-1.065 9.937-5.858 11.496a9.452 9.452 0 0 1-2.813.445l-269.38.012v362.134c.586 12.399 2.59 20.86 7.347 25.711 4.711 4.805 13.055 7.032 26.508 7.207l281.533-.035V498.53c6.797-.457 13.113-2.989 18.258-7.008v26.637h50.79c4.945.035 9.011 3.996 9.105 8.953.527 26.602-2.86 45.317-13.547 57.469-10.781 12.234-27.657 16.887-53.66 15.023a9.27 9.27 0 0 1-1.817.188l-290.85-.047c-18.632-.246-30.996-4.16-39.316-12.633-8.426-8.59-11.8-20.93-12.574-38.074l-.047-362.533H9.129c-5.039 0-9.129-4.09-9.129-9.13l.07-1.136c.633-14.192 3.75-28.7 10.56-40.618l.327-.527c6.176-10.57 15.223-19.066 27.88-23.648a9.4 9.4 0 0 1 3.07-.528l315.166-.035.925.047h.457c15.13.129 28.067 2.59 37.536 10.793 9.574 8.285 14.765 21.563 13.887 42.832l.011 72.364a170.26 170.26 0 0 0-18.223 12.516l.012-85.278c.668-15.2-2.191-23.989-7.594-28.676-5.086-4.395-13.136-6-22.98-6.305zm-23.59 332.955c-7.36 23.063-18.07 45.27-19.793 67.864l12.762-2.145c15.468-60.645 30.527-101.79 66.129-154.606 26.684-39.598 56.567-71.801 96.024-98.673 21.012-14.308 48.106-30.316 73.219-35.836 6.855-1.511 13.887-2.355 21.129-2.343-77.157 24.41-136.009 71.18-180.646 137.742-18.21 27.13-33.55 56.895-47.332 88.067l30.328 3.024-12.937-5.18 43.945-10.71c-16.992-4.5-33.164-1.22-38.918-7.079 45.657-5.813 82.489-18.762 107.368-40.137-9.961-.574-21.399-.879-27.54-3.223 43.08-18.597 66.493-47.601 97.044-74.121-41.508 12.316-80.707 14.027-92.672 6.926 74.977-.551 121.465-25.067 133.723-78.364.961-5.73.903-11.414-.457-17.05-8.824-36.646-75.574-43.841-94.477-11.638-3.785 6.446-9.363 12.504-13.781 19.97l17.25-39.845c-53.274 22.97-56.121 43.747-79.465 107.52.726-18.89 4.523-36.258 9.984-52.805-66.305 31.993-83.696 100.36-82.735 157.22-3.586-19.57-1.957-44.66 2.825-73.079-18.34 21.657-30.024 46.266-22.442 79.43l-9.492-3.34 6.27 17.614-14.204-5.367zM139.57 476.86c-4.968 0-9-4.066-9-9.093 0-5.016 4.032-9.082 9-9.082h115.62c4.957 0 8.989 4.066 8.989 9.082 0 5.027-4.032 9.094-8.989 9.094zm0-55.218c-4.968 0-9-4.067-9-9.094 0-5.016 4.032-9.082 9-9.082h148.923c4.969 0 9 4.066 9 9.082 0 5.027-4.031 9.094-9 9.094zm-3.445-55.22c-5.227 0-9.48-4.078-9.48-9.105 0-5.016 4.253-9.094 9.48-9.094H312.81c5.226 0 9.48 4.078 9.48 9.094 0 5.027-4.254 9.106-9.48 9.106zm3.164-55.3c-5.039 0-9.129-4.044-9.129-9.024 0-4.992 4.09-9.035 9.13-9.035h188.871c5.04 0 9.13 4.043 9.13 9.035 0 4.98-4.09 9.023-9.13 9.023zm.281-55.102c-5.05 0-9.14-4.102-9.14-9.141 0-5.04 4.09-9.13 9.14-9.13h188.86c5.04 0 9.141 4.09 9.141 9.13 0 5.039-4.101 9.14-9.14 9.14zM409.9 536.427v45.282c16.324.48 26.695-2.426 32.637-9.188 6.21-7.054 8.754-18.984 9.07-36.094zm-75.282-392.299c1.02-5.12 2.66-10.16 5.016-14.976H43.512c-7.453 3.082-12.926 8.449-16.805 15.07l-.246.457c-3.925 6.879-6.27 15.07-7.43 23.555h315.12c-1.184-7.84-1.125-16.078.468-24.106z" fill-rule="nonzero"/></svg>