<svg height="96" width="96" xmlns="http://www.w3.org/2000/svg"><path d="M95.481 78.908L85.208 61.816H74.936l10.272 17.092L74.936 96h10.272z" fill="#fe5200"/><path d="M70.19 78.908L59.915 96H70.19l10.273-17.092L70.19 61.816H59.916z" fill="#fe5200"/><path d="M44.897 61.816L55.17 78.908 44.897 96H55.17l10.272-17.092L55.17 61.816z" fill="#fe5200"/><path d="M41.596 94.016l9.08-15.108-9.08-15.108-3.507-5.835h28.123c-2.306-16.128-16.163-28.532-32.93-28.532C14.903 29.433 0 44.336 0 62.717 0 81.1 14.901 96 33.283 96c2.638 0 5.201-.32 7.663-.901zm-3.381-55.01l-.164 12.335c-4.666-.462-9.298.978-12.702 3.839l-8.83-8.823c5.557-5.547 13.685-8.429 21.696-7.35m-28.21 19.278a23.328 23.328 0 0 1 2.383-6.436l9.952 6.763a14.525 14.525 0 0 0-1.983 4.845 16.726 16.726 0 0 0-.303 4.519l-9.61 1.798a23.768 23.768 0 0 1-.438-11.49m12.536 26.12a23.845 23.845 0 0 1-9.815-9.293l8.038-3.256a16.836 16.836 0 0 0 4.904 7.575zm5.95 2.09a24.208 24.208 0 0 1-1.425-.347l1.804-4.483a16.726 16.726 0 0 0 4.492 1.639c2.806.584 5.591.526 8.22-.049l.425 2.112a23.735 23.735 0 0 1-13.515 1.128" fill="#fe5200"/></svg>