<svg width="600" height="600" xmlns="http://www.w3.org/2000/svg"><path d="M11.23 261.522h150.392v-7.324c0-30.518 24.95-55.469 55.469-55.469h55.517c30.518 0 55.47 24.951 55.47 55.469v7.324h140.869c6.152 0 11.23 5.03 11.23 11.23v36.67H137.012c-6.299 0-13.867 5.128-16.894 11.427L9.18 550.586A11.206 11.206 0 0 1 0 539.599V272.753a11.23 11.23 0 0 1 11.23-11.23zm177.98 0h111.28v-6.299c0-15.673-12.794-28.515-28.516-28.515h-54.249c-15.674 0-28.515 12.842-28.515 28.515zm-40.723 69.092h443.898c6.25 0 9.424 5.225 6.543 11.377L482.96 588.623C480.08 594.775 472.95 600 466.7 600H22.803c-6.299 0-9.424-5.225-6.543-11.377l115.967-246.632c2.88-6.152 9.961-11.377 16.26-11.377z" fill-rule="evenodd"/></svg>