<svg fill-rule="evenodd" height="600" image-rendering="optimizeQuality" shape-rendering="geometricPrecision" width="600" xmlns="http://www.w3.org/2000/svg"><path d="M160.904 0H378.45a9.13 10.695 0 0 1 7.302 4.265l110.78 140.399a9.064 10.618 0 0 1 2.419 7.238h.048v377.923c0 19.213-6.783 36.766-17.651 49.498C470.48 592.054 455.493 600 439.094 600h-278.19c-16.42 0-31.421-7.914-42.294-20.65-10.846-12.706-17.609-30.234-17.609-49.525V70.175c0-19.31 6.739-36.859 17.59-49.57C129.442 7.896 144.42 0 160.904 0zM119.29 397.22h361.42V173.133h-45.186v-.044h-.143c-21.853-.405-38.959-7.199-51.16-19.408-12.662-12.676-19.765-30.769-21.173-53.267a9.118 10.681 0 0 1-.087-1.469v-77.52H160.904c-11.434 0-21.839 5.49-29.384 14.328-7.545 8.837-12.23 21.026-12.23 34.424zm361.42 21.665H119.29v110.94c0 13.37 4.705 25.54 12.25 34.379 7.567 8.863 17.985 14.371 29.364 14.371h278.19c11.354 0 21.756-5.532 29.324-14.4 7.568-8.866 12.292-21.048 12.292-34.35zm-84.649-120.002v-4.406h-7.106v-24.97h33.576v54.51a96.1 112.577 0 0 1-34.272 7.343c-15.883 0-26.797-4.514-32.74-13.545-3.065-4.678-5.201-10.174-6.41-16.484s-1.811-14.117-1.811-23.42c0-9.304.628-17.083 1.882-23.338 1.254-6.256 3.505-11.725 6.757-16.403 6.13-9.138 17.971-13.71 35.525-13.71 3.624 0 8.337.435 14.142 1.307 5.805.871 10.055 1.848 12.748 2.938l-4.18 24.97c-7.523-1.524-14.328-2.285-20.409-2.285s-10.357.544-12.819 1.63c-2.462 1.088-3.691 3.267-3.691 6.532v46.185h9.194c3.345 0 5.782-.406 7.316-1.223 1.534-.816 2.298-2.693 2.298-5.631zm-84.08-71.975h29.398l-21.594 102.005h-40.683l-21.594-102.005h29.396l11.843 64.793h1.254zM177.47 327.118l3.899-26.93c8.546 2.503 16.231 3.755 23.058 3.755s12.331-.326 16.509-.979v-8.161l-12.538-1.306c-11.331-1.196-19.111-4.38-23.336-9.546-4.225-5.168-6.339-12.814-6.339-22.932 0-13.927 2.577-23.5 7.733-28.724 5.156-5.223 13.909-7.834 26.262-7.834s23.497 1.36 33.436 4.08l-3.483 26.113c-8.637-1.633-15.558-2.447-20.759-2.447s-9.613.27-13.236.814v7.998l10.031 1.144c12.167 1.412 20.573 4.813 25.217 10.198 4.644 5.386 6.967 12.869 6.967 22.442 0 6.854-.79 12.65-2.37 17.38-1.58 4.732-3.459 8.324-5.641 10.773-2.182 2.45-5.271 4.324-9.265 5.632-3.994 1.307-7.499 2.092-10.518 2.365s-7.036.407-12.052.407c-12.074 0-23.266-1.414-33.575-4.243zm43.993 183.515c-5.206 0-9.43-4.947-9.43-11.047 0-6.101 4.224-11.047 9.43-11.047H374.73c5.207 0 9.43 4.947 9.43 11.047s-4.223 11.047-9.43 11.047zM381.25 29.963v68.936c1.04 16.626 6.016 29.725 14.831 38.547 8.947 8.95 22.117 13.954 39.443 14.303v-.041h41.788z" fill-rule="nonzero"/></svg>