<svg width="600" height="600" xmlns="http://www.w3.org/2000/svg"><path d="M49.34 1.387c-2.607.949-5.932 2.963-7.591 4.506-6.526 6.049-6.288 2.73-6.288 89.326 0 90.752-.471 85.885 9.374 92.056l5.338 3.441h140.693v157.187c0 167.503-.116 162.636 5.34 164.772 1.064.355 27.048.71 57.654.71h55.628v33.453c0 18.508.594 35.467 1.188 37.727 1.426 5.338 8.896 12.691 14.357 14.234 5.694 1.66 218.392 1.543 224.325 0 2.492-.71 6.049-2.608 8.063-4.39 7.353-6.171 7.12-3.202 7.12-77.815V448.5l-2.73-4.035c-1.427-2.136-4.506-5.222-6.643-6.642l-4.035-2.73h-101.43l-26.332-13.048-26.333-13.17-37.01.356-37.132.355-4.267 3.318c-8.425 6.405-8.54 6.76-8.896 46.268l-.355 35.234h-99.532V302.468l3.912-.593c4.867-.95 89.448-.95 93.006 0 2.608.593 2.608.71 2.963 35.828l.355 35.35 3.202 4.746c1.898 2.847 5.222 5.816 8.302 7.353 5.222 2.491 5.577 2.491 115.78 2.491l113.767-1.304c4.035-1.543 9.49-6.526 11.743-10.793 1.427-2.609 1.66-14.829 1.66-70.347 0-74.852.238-72.244-8.064-78.648l-4.15-3.202-52.317-.594-52.316-.594-25.506-12.692-25.506-12.814h-34.88c-33.213 0-35.227.116-40.211 2.492-3.086 1.543-6.404 4.506-8.302 7.353l-3.202 4.745-.355 35.473-.355 35.35H209.84v-91.223l33.569-.355 33.692-.355 4.267-3.325c9.018-6.76 8.54-2.963 8.54-78.648V40.534l-3.324-4.984c-1.781-2.73-5.339-6.05-7.947-7.353-4.39-2.253-6.881-2.376-55.163-2.376H172.94l-25.15-12.814L122.637.315 88.236.077C61.322-.15 52.898.083 49.341 1.387zm94.072 30.373l24.318 12.46 51.606.593 51.605.594v125.736l-108.189.355-108.305.239V18.585l32.387.355 32.266.355zm275.214 196.921l26.216 13.047h100.714v126.93l-108.19-.239-108.305-.355-.238-74.736.238-76.28c.355-1.065 7.83-1.42 31.91-1.42h31.316zm0 212.344l26.333 13.047h100.59v126.93l-108.188-.24-108.306-.355-.239-76.279-.238-76.156h63.82z"/></svg>