<svg height="600" width="600" xmlns="http://www.w3.org/2000/svg"><path d="M88.935 123.995c37.712 12.745 90.121 20.318 148.347 20.318 58.225 0 110.684-7.568 148.347-20.318 33.068-11.036 53.728-24.425 53.728-37.511 0-13.087-20.465-26.427-53.733-37.468-37.658-12.55-90.068-20.318-148.347-20.318-58.28 0-110.63 7.764-148.342 20.123-70.14 23.448-72.045 50.896 0 74.979zm342.409 152.253a161.629 161.629 0 0 1 114.497 47.43A161.852 161.852 0 1 1 316.95 552.57a161.775 161.775 0 0 1 0-228.893 161.482 161.482 0 0 1 114.444-47.429zm9.185 85.576l-13.722 68.582-13.682-20.616c-29.308 11.822-46.013 31.359-48.454 61.35-24.42-42.296-9.522-80.252 21.148-102.573l-13.965-21.007 68.382 14.166zm-21.93 156.94l13.477-68.381 13.727 20.611c29.308-11.817 46.012-31.359 48.454-61.35 24.425 42.301 9.77 80.257-21.144 102.578l13.966 21.002-68.382-14.161zm109.317-176.863a136.77 136.77 0 1 0 40.002 96.562 135.988 135.988 0 0 0-40.002-96.567zM221.26 444.474c-54.857-1.123-104.385-9.18-141.267-21.495a181.024 181.024 0 0 1-43.957-20.807v93.687c2.588 12.158 22.418 24.425 53.19 34.728 37.713 12.603 90.122 20.372 148.348 20.372h16.705a213.36 213.36 0 0 0 21.1 27.79q-18.459 1.074-37.805 1.074c-61.155 0-116.842-8.35-157.43-21.881-21.397-7.178-72.83-30.627-72.83-58.616V489.9L6.729 86.484c0-26.77 27.94-49.485 73.27-64.584C120.44 8.33 176.122-.024 237.282-.024c61.16 0 116.836 8.35 157.43 21.93 40.592 13.579 67.996 33.805 72.488 57.492a14.307 14.307 0 0 1 .83 4.883v146.98a206.03 206.03 0 0 0-29.699-3.125 13.526 13.526 0 0 0 .83-4.541v-93.599a180.731 180.731 0 0 1-44.596 21.105c-40.593 13.526-96.274 21.93-157.43 21.93-61.155 0-116.695-8.4-157.136-21.93a182.88 182.88 0 0 1-43.962-20.763v95.986c2.588 12.159 22.418 24.42 53.19 34.728 37.42 12.452 89.83 20.368 148.055 20.368 19.928 0 39.074-.928 57.346-2.637a199.418 199.418 0 0 0-8.794 8.008c-1.074.879-2.05 1.807-3.028 2.734a214.434 214.434 0 0 0-17.34 19.542c-9.228.391-18.56.586-28.087.586-61.252.44-116.939-7.91-157.38-21.49A181.024 181.024 0 0 1 36.037 267.4v93.687c2.588 12.163 22.418 24.425 53.19 34.733 34.441 11.475 81.138 18.946 133.4 20.167a209.649 209.649 0 0 0-1.171 22.227v6.446z"/></svg>