<svg height="800" viewBox="0 0 31.404 31.405" width="800" xmlns="http://www.w3.org/2000/svg"><path d="m30.676 27.108-2.783-2.781c1.193-2.621.72-5.82-1.432-7.974-2.771-2.771-7.279-2.771-10.054.001a7.113 7.113 0 0 0 .003 10.051c2.15 2.151 5.352 2.625 7.973 1.434l2.782 2.781a2.483 2.483 0 1 0 3.511-3.512zm-5.988-2.478a4.605 4.605 0 0 1 -6.504 0 4.605 4.605 0 0 1 0-6.504 4.606 4.606 0 0 1 6.504 0 4.605 4.605 0 0 1 0 6.504z"/><path d="m21.721 4.602-1.242-1.115-1.465-.287-.035.672 1.437 1.4.703.827-.792.413-.643-.19-.963-.401.033-.777-1.265-.521-.42 1.826-1.274.289.127 1.02 1.658.32.286-1.63 1.37.203.637.373h1.021l.701 1.401 1.854 1.881-.136.732-1.496-.191-2.583 1.305-1.808 2.168a8.075 8.075 0 0 1 4.008-1.061 8.07 8.07 0 0 1 5.742 2.376c1.889 1.891 2.683 4.59 2.23 7.161a15.475 15.475 0 0 0 1.754-7.155c0-3.209-.973-6.193-2.637-8.672l-.465.148-2.482.223-.701 1.119-.508-.161-1.977-1.782-.289-.927zm-7.71 10.771.301 1.274.526-.605.501-.018c.115-.13.228-.264.352-.388.146-.146.3-.278.454-.412l-.924-.426zm6.073 14-.559.372-.285 1.031a15.539 15.539 0 0 0 3.75-1.443 8.164 8.164 0 0 1 -1.564.156c-.455 0-.903-.043-1.342-.116zm-4.391-2.253a8.053 8.053 0 0 1 -2.377-5.739c0-1.258.291-2.468.827-3.563l-1.664-.373-.86-1.802v1.069h-.379l-2.234-3.028v-2.487l-1.639-2.66-2.599.461h-1.75l-.882-.578 1.125-.891-1.122.259a15.493 15.493 0 0 0 -2.139 7.854c0 8.605 6.976 15.584 15.582 15.584.663 0 1.312-.057 1.955-.136l-.162-1.889.176-.693a8.13 8.13 0 0 1 -1.858-1.388zm-9.902-22.038 2.769-.386 1.276-.7 1.435.414 2.294-.127.786-1.235 1.146.189 2.783-.262.766-.844 1.082-.722 1.529.229.558-.084a15.54 15.54 0 0 0 -6.633-1.497 15.543 15.543 0 0 0 -12.019 5.666h.008zm10.449-3.476 1.593-.876 1.022.59-1.48 1.127-1.412.142-.637-.412zm-4.714.128.702.293.919-.293.501.868-2.122.557-1.021-.597c0 .001.998-.642 1.021-.828z"/></svg>