<svg height="800" viewBox="0 0 14 14" width="800" xmlns="http://www.w3.org/2000/svg"><path d="m11.343 1h-8.743s-.298.043-.298.426v11.127s-.085.447.362.447h8.723s.32.021.32-.426v-11.148s.018-.426-.365-.426zm-4.989 9.53c-.14 0-.255-.164-.255-.366s.114-.366.255-.366c.142 0 .256.164.256.366s-.114.366-.256.366zm1.286 0c-.141 0-.255-.164-.255-.366s.114-.366.255-.366.255.164.255.366-.114.366-.255.366zm2.197-.445c-.054.427-.243.445-.243.445s-.271-.023-.78-.007c-.507.016-.624.032-.529-.287.096-.32.563-1.516.527-3.59-.037-2.114-.611-.89-.611-.89s-.569 1.772-.841 2.677c-.36 1.195-.703.053-.703.053-.765-2.986-1.227-3.548-1.484-2.878-.255.67.32 4.229.431 4.548.112.32 0 .367 0 .367h-1.26c-.215-.118-.208-.447-.208-.447s-.016-4.946 0-5.664c.016-.719.367-.942.367-.942l.554-.14.563.133c.138.127.493.573.754 1.02.323.55.626 1.113.626 1.113.287-1.213 1.3-2.126 1.3-2.126l.538-.156.563.156c.335.319.271.478.367.941s.14 5.104.068 5.674z"/></svg>