<svg height="600" width="600" xmlns="http://www.w3.org/2000/svg"><path d="M537.475 336.621a157.88 157.88 0 0 1 39.502 104.736c0 87.598-70.996 158.643-158.642 158.643-60.791 0-113.623-34.229-140.234-84.424h-72.315v33.887H97.876v-33.887H23.07v-39.355h74.805v-34.229h34.277v-77.49H58.374a35.205 35.205 0 0 1-24.951-10.352 35.054 35.054 0 0 1-10.4-24.95V205.03a35.059 35.059 0 0 1 8.349-22.755 35.083 35.083 0 0 1-8.35-22.802V35.352A35.205 35.205 0 0 1 33.374 10.4a35.083 35.083 0 0 1 25-10.4h444.629a35.205 35.205 0 0 1 24.951 10.352 35.21 35.21 0 0 1 10.352 24.95v124.17c0 8.643-3.174 16.602-8.35 22.755a35.054 35.054 0 0 1 8.35 22.754v124.17c0 2.538-.293 5.029-.83 7.47zm-46.972 40.283v52.49H431.81l4.395-4.394 15.283-15.283a51.313 51.313 0 0 0-32.52-11.621 51.074 51.074 0 0 0-51.269 51.27v.048c0 50.586 79.688 67.09 96.143 15.625l.586-1.758h35.595l-.634 3.076v.098a81.477 81.477 0 0 1-4.737 15.04c-22.168 52.343-97.656 62.353-136.816 23.193a81.772 81.772 0 0 1-24.024-58.008v-.05c0-58.3 60.254-99.12 114.893-75.292a81.318 81.318 0 0 1 24.658 16.65l12.842-12.841 4.394-4.395v6.152zm-226.904 99.317a157.959 157.959 0 0 1-3.858-34.864c0-27.88 7.227-54.101 19.824-76.855H171.46v77.539h34.277v34.229H263.6zm-111.768-4.98c13.525 0 24.512 10.986 24.512 24.511 0 13.525-10.987 24.512-24.512 24.512s-24.512-10.987-24.512-24.512a24.512 24.512 0 0 1 24.512-24.512zM92.211 63.622h26.124v67.627H92.212zm358.985 182.764c11.426 0 20.703 9.277 20.703 20.703 0 9.766-6.738 17.92-15.82 20.117a159.76 159.76 0 0 1 57.324 26.953V205.03a10.254 10.254 0 0 0-3.076-7.325 10.45 10.45 0 0 0-5.469-2.88c-.634.048-1.27.048-1.855.048H58.374c-.635 0-1.27 0-1.855-.049a10.45 10.45 0 0 0-5.47 2.881c-1.952 1.856-3.124 4.443-3.124 7.324V329.2A10.254 10.254 0 0 0 51 336.523c1.904 1.905 4.492 3.077 7.324 3.077h237.158c14.356-16.993 32.13-30.957 52.246-40.772 21.24-10.351 45.069-16.162 70.264-16.162a162.012 162.012 0 0 1 21.338 1.416 20.713 20.713 0 0 1 11.865-37.695zm-78.857 0c11.426 0 20.703 9.277 20.703 20.703s-9.277 20.703-20.703 20.703-20.703-9.277-20.703-20.703 9.277-20.703 20.703-20.703zM236.645 233.3h26.123v67.627h-26.123zm-72.216 0h26.123v67.627h-26.123zm-72.217 0h26.123v67.627H92.212zM451.196 76.709c11.426 0 20.703 9.277 20.703 20.703s-9.277 20.703-20.703 20.703-20.703-9.277-20.703-20.703 9.277-20.703 20.703-20.703zm-78.857 0c11.426 0 20.703 9.277 20.703 20.703s-9.277 20.703-20.703 20.703-20.703-9.277-20.703-20.703 9.277-20.703 20.703-20.703zM236.645 63.623h26.123v67.627h-26.123zm-72.216 0h26.123v67.627h-26.123zM56.469 169.727c.635-.05 1.27-.05 1.856-.05h444.629c.635 0 1.27 0 1.855.05a10.45 10.45 0 0 0 5.47-2.881c1.904-1.905 3.075-4.492 3.075-7.324V35.352a10.45 10.45 0 0 0-3.076-7.373c-1.904-1.905-4.492-3.077-7.324-3.077H58.374a10.45 10.45 0 0 0-7.373 3.077c-1.904 1.904-3.076 4.492-3.076 7.373v124.17A10.254 10.254 0 0 0 51 166.846a10.45 10.45 0 0 0 5.469 2.88zm444.874 166.455c-9.424-7.325-19.825-13.477-30.957-18.164a135.142 135.142 0 0 0-52.344-10.45 135.791 135.791 0 0 0-33.545 4.2c-57.568 15.039-100.049 67.382-100.049 129.638 0 73.975 59.961 133.985 133.985 133.985 74.023 0 133.984-59.961 133.984-133.985-.098-42.676-20.02-80.664-51.074-105.224z" fill-rule="evenodd"/></svg>