<svg height="600" width="600" xmlns="http://www.w3.org/2000/svg"><path d="M300.024.043c10.596-.44 18.945 3.223 27.392 8.594 10.693 6.786 22.753 20.214 37.645 28.71 20.947 11.962 59.715-4.541 79.538 24.95 11.572 17.186 12.109 30.663 12.988 43.992.928 14.355 3.467 27.587 18.163 47.02 24.365 32.225 29.443 53.66 16.894 75.974-8.544 15.233-26.561 23.68-30.712 33.348-8.886 20.507.928 35.985-11.18 59.91-8.448 16.6-21.436 27.538-38.769 33.104-14.599 4.687-29.247-2.1-40.965 2.832-20.556 8.642-35.692 28.71-52.049 33.788-6.299 1.953-12.597 2.93-18.896 2.88-6.298.05-12.597-.927-18.896-2.88-16.356-5.078-31.493-25.146-52.048-33.788-11.719-4.931-26.367 1.904-40.966-2.832-17.333-5.566-30.32-16.503-38.768-33.104-12.158-23.925-2.343-39.403-11.181-59.91-4.15-9.668-22.167-18.115-30.712-33.348-12.646-22.314-7.568-43.749 16.797-75.925 14.696-19.433 17.235-32.665 18.163-47.02.879-13.33 1.416-26.806 12.988-43.993 19.872-29.49 58.64-12.987 79.538-24.95 14.892-8.496 26.952-21.923 37.645-28.71 8.398-5.42 16.796-9.13 27.391-8.642zm0 126.753l21.777 53.22 57.37 4.249-43.894 37.157 13.671 55.857-48.924-30.272-48.924 30.272 13.672-55.857-43.895-37.157 57.37-4.248zm208.88 425.277l-56.395-10.107-27.977 50.096c-20.312 25.146-33.202-16.21-38.866-30.614l-54.442-102.682c12.549-4.345 27.685-16.894 43.212-31.004 31.004.634 59.91-4.737 81.149-31.786l62.547 120.845 5.42 11.62c4.296 15.088 2.05 25.048-14.649 23.632zm-417.807 0l56.443-10.107 27.977 50.096c20.312 25.146 33.202-16.21 38.866-30.614l54.441-102.682c-12.548-4.345-27.684-16.894-43.21-31.004-31.006.634-59.91-4.737-81.15-31.786L81.868 516.82l-5.42 11.62c-4.296 15.088-2.05 25.048 14.649 23.632zM299.438 78.605c67.38 0 122.017 54.636 122.017 122.017 0 67.38-54.636 122.017-122.016 122.017s-122.017-54.637-122.017-122.017c.048-67.38 54.636-122.017 122.016-122.017z" fill-rule="evenodd"/></svg>